<?xml version="1.0" standalone="no"?>
<!DOCTYPE svg PUBLIC "-//W3C//DTD SVG 20010904//EN"
 "http://www.w3.org/TR/2001/REC-SVG-20010904/DTD/svg10.dtd">
<svg version="1.0" xmlns="http://www.w3.org/2000/svg"
 width="279.000000pt" height="380.000000pt" viewBox="0 0 279.000000 380.000000"
 preserveAspectRatio="xMidYMid meet">
<metadata>
Black'n'White Logo Design
</metadata>
<g transform="translate(0.000000,380.000000) scale(0.050000,-0.050000)"
fill="#050505" stroke="none">
<path d="M180 7580 c0 -11 -16 -36 -35 -56 -19 -20 -57 -67 -83 -104 l-48 -66
-10 -3463 c-11 -3916 -22 -3606 133 -3770 l115 -121 2543 0 2544 0 101 90 c56
49 110 90 121 90 43 0 24 7256 -19 7269 -21 7 -59 43 -85 82 l-47 69 -2615 0
c-1730 0 -2615 -7 -2615 -20z m5200 -3770 l0 -3600 -2585 0 -2585 0 0 3600 0
3600 2585 0 2585 0 0 -3600z"/>
<path d="M2607 6850 c-292 -52 -656 -230 -795 -387 -27 -30 -62 -43 -116 -43
-280 0 -441 -284 -375 -661 15 -82 24 -158 21 -169 -3 -11 -9 -111 -13 -222
-4 -111 -18 -245 -31 -296 -96 -382 103 -748 480 -881 47 -17 149 -72 226
-123 368 -245 839 -329 1235 -220 92 26 114 26 140 4 267 -234 674 -34 554
272 l-32 81 115 125 c527 576 504 1484 -52 2074 -106 111 -130 150 -134 210
-8 131 -168 211 -290 146 -28 -15 -64 -10 -134 18 -225 88 -549 118 -799 72z
m663 -111 c77 -24 143 -46 147 -49 19 -18 -72 -116 -130 -140 -87 -36 -95
-130 -17 -182 95 -62 190 49 127 149 -18 28 -15 48 13 90 45 68 59 67 201 -18
881 -531 951 -1801 132 -2413 -127 -95 -374 -221 -417 -212 -51 10 -190 258
-178 318 22 112 -112 187 -174 97 l-29 -40 -179 39 c-277 60 -621 218 -668
306 -47 88 -48 349 -2 361 64 16 79 109 27 161 -35 35 -52 39 -98 23 -65 -23
-88 -125 -36 -168 20 -16 31 -60 31 -118 1 -51 9 -127 18 -168 33 -138 -278
159 -460 442 l-100 153 97 90 c146 135 296 212 337 171 63 -63 168 -15 168 76
0 117 -197 130 -201 14 -1 -18 -51 -55 -117 -86 -64 -30 -158 -91 -208 -136
-148 -130 -180 -3 -76 297 260 747 1062 1169 1792 943z m502 -53 c82 -108 32
-127 -106 -41 -121 76 -129 85 -85 96 65 16 157 -11 191 -55z m-2145 -441
c-137 -192 -162 -239 -219 -415 l-44 -140 -15 77 c-55 292 60 549 273 610 118
34 119 26 5 -132z m-100 -1015 c75 -142 250 -349 413 -487 98 -84 140 -136
172 -217 24 -59 57 -127 73 -151 17 -26 26 -72 20 -107 -16 -110 71 -160 157
-90 69 56 35 149 -58 158 -57 6 -184 180 -184 252 0 5 74 -30 165 -78 174 -92
475 -190 585 -190 48 0 74 -14 98 -50 22 -34 51 -50 90 -50 45 0 63 -13 82
-61 14 -33 51 -96 83 -140 64 -88 67 -84 -99 -118 -511 -102 -1096 127 -1420
557 -194 257 -341 684 -284 823 33 80 41 76 107 -51z m-59 -542 c60 -130 154
-269 261 -386 98 -106 50 -103 -122 9 -187 121 -289 327 -290 583 -1 201 22
218 66 46 20 -80 59 -193 85 -252z m2445 -705 c-31 -187 -242 -251 -460 -140
l-78 40 158 77 c86 42 198 108 247 146 l90 70 27 -62 c15 -35 22 -93 16 -131z"/>
<path d="M2475 6438 c-40 -23 -47 -118 -11 -154 39 -39 132 -29 156 17 58 107
568 -90 818 -316 l128 -116 -128 -84 c-285 -185 -626 -300 -698 -235 -88 79
-215 -49 -139 -141 40 -48 136 -36 162 19 17 37 51 56 148 80 163 41 394 147
546 250 l121 82 63 -91 c148 -216 239 -567 161 -622 -60 -42 -50 -126 22 -166
99 -55 192 97 99 163 -25 17 -45 72 -61 164 -30 170 -96 337 -189 476 l-70
104 73 65 c42 37 97 66 127 66 110 2 136 153 33 189 -78 27 -143 -32 -129
-117 8 -51 -1 -70 -59 -118 l-68 -57 -126 118 c-191 178 -547 346 -734 346
-45 0 -76 15 -104 50 -41 53 -84 62 -141 28z"/>
<path d="M1605 2630 c-983 -277 -893 -1730 116 -1870 811 -113 1361 694 974
1426 -188 355 -687 558 -1090 444z m-249 -425 c-17 -19 -54 -75 -83 -125 -50
-86 -53 -87 -53 -33 0 38 22 79 68 125 70 70 121 95 68 33z m718 -22 c364
-187 364 -785 -1 -961 -266 -129 -602 41 -674 341 -104 436 303 811 675 620z
m425 -111 c0 -38 -6 -36 -50 18 -66 81 -66 133 1 70 28 -26 50 -66 49 -88z
m-1172 -828 l55 -86 -50 32 c-68 45 -112 118 -112 184 l0 56 27 -50 c14 -27
50 -89 80 -136z m1173 96 c0 -22 -28 -69 -62 -105 -70 -74 -66 -30 8 80 52 76
54 77 54 25z"/>
<path d="M3705 2620 c-951 -311 -839 -1703 150 -1863 353 -56 885 179 885 391
0 169 -218 240 -348 114 -507 -491 -1291 245 -861 807 79 104 85 141 30 170
-99 54 -279 -235 -296 -477 -46 -637 653 -1022 1180 -649 141 100 205 65 70
-38 -355 -271 -836 -234 -1119 85 -651 734 314 1769 1098 1178 172 -129 284
-70 143 75 -202 209 -632 304 -932 207z"/>
</g>
</svg>
